<?xml version="1.0" standalone="no"?>
<!DOCTYPE svg PUBLIC "-//W3C//DTD SVG 20010904//EN"
 "http://www.w3.org/TR/2001/REC-SVG-20010904/DTD/svg10.dtd">
<svg version="1.0" xmlns="http://www.w3.org/2000/svg"
 width="300.000000pt" height="338.000000pt" viewBox="0 0 300.000000 338.000000"
 preserveAspectRatio="xMidYMid meet">
<metadata>
Created by potrace 1.10, written by Peter Selinger 2001-2011
</metadata>
<g transform="translate(0.000000,338.000000) scale(0.100000,-0.100000)"
fill="#000000" stroke="none">
<path d="M1403 2528 c-12 -14 -74 -170 -273 -683 -170 -439 -214 -553 -250
-645 -107 -273 -130 -334 -130 -346 0 -19 123 -20 138 -1 5 6 17 32 26 57 25
72 81 209 89 216 19 19 3 -58 -33 -155 -22 -60 -40 -114 -40 -120 0 -8 21 -10
67 -8 64 4 67 5 84 38 21 41 146 372 199 524 94 274 209 560 220 548 11 -13
162 -376 180 -433 5 -14 20 -56 34 -95 14 -38 26 -73 26 -77 0 -5 -103 -8
-229 -8 -171 0 -231 -3 -238 -12 -15 -19 -42 -106 -35 -112 3 -3 130 -6 282
-6 l277 0 16 -37 c9 -21 41 -101 71 -177 57 -149 61 -154 131 -155 72 -1 72
-3 -10 217 -41 111 -75 210 -75 220 0 10 -6 26 -13 37 -17 25 -28 65 -17 65 4
0 10 -10 13 -22 3 -13 50 -131 105 -263 l100 -240 66 -3 c36 -2 66 1 66 5 0
23 -146 398 -504 1298 l-152 380 -90 3 c-65 2 -94 -1 -101 -10z m178 -7 c6 -1
209 -503 464 -1150 64 -162 113 -301 110 -308 -2 -8 -1 -12 4 -9 8 5 38 -81
33 -96 -1 -5 3 -8 8 -8 6 0 10 -6 9 -12 0 -7 2 -22 5 -33 11 -32 4 -39 -42
-40 -42 -1 -44 1 -63 45 -45 100 -447 1121 -559 1420 -48 127 -48 126 -56 118
-5 -5 -151 -388 -239 -628 -34 -92 -24 -86 15 10 47 117 54 100 11 -29 -36
-110 -17 -77 33 57 26 70 67 177 91 237 23 61 53 138 67 173 l24 62 41 -102
c36 -90 92 -233 178 -453 257 -658 345 -890 345 -905 0 -5 -24 -10 -54 -10
-50 0 -54 2 -66 29 -6 17 -9 35 -4 42 4 7 3 10 -4 6 -6 -4 -32 49 -67 138
l-57 145 -283 2 -282 3 20 54 21 53 135 -4 c75 -3 184 -2 242 1 l105 6 -131
337 c-72 186 -134 340 -136 342 -5 5 -12 -13 -139 -359 -50 -137 -100 -272
-110 -300 -10 -27 -53 -141 -95 -253 -42 -112 -81 -212 -88 -223 -9 -16 -20
-19 -49 -16 -21 2 -38 1 -38 -2 0 -4 -9 -7 -20 -7 -11 0 -20 1 -20 3 0 1 12
33 26 70 14 38 44 120 65 183 22 63 50 142 63 175 58 146 66 168 63 171 -2 2
-14 -17 -26 -42 -13 -25 -25 -43 -28 -41 -2 3 1 15 7 27 6 11 10 28 8 38 -2 9
-21 -31 -42 -88 -45 -121 -117 -297 -146 -355 -11 -22 -20 -47 -20 -56 0 -9
-7 -33 -15 -53 -15 -36 -16 -36 -75 -36 -33 0 -60 2 -60 4 0 6 124 328 345
896 196 504 230 590 272 691 l35 87 82 -3 c44 -2 84 -3 87 -4z m-62 -153 c26
-78 26 -87 0 -54 -20 26 -22 26 -40 10 -11 -9 -19 -13 -19 -9 0 10 33 115 36
115 1 0 12 -28 23 -62z m205 -544 c3 -8 2 -12 -4 -9 -6 3 -10 10 -10 16 0 14
7 11 14 -7z m34 -74 c8 -22 8 -31 -1 -36 -7 -4 -9 -4 -5 1 4 4 1 20 -7 36 -17
32 -19 43 -6 35 5 -3 14 -19 19 -36z m51 -130 c16 -47 28 -86 27 -87 -6 -6
-56 114 -62 148 -11 53 2 31 35 -61z m62 -157 c6 -16 12 -32 13 -38 1 -5 6
-16 10 -24 6 -10 5 -12 -3 -7 -12 8 -20 25 -35 74 -10 32 2 27 15 -5z"/>
<path d="M1620 2320 c0 -5 5 -10 10 -10 6 0 10 5 10 10 0 6 -4 10 -10 10 -5 0
-10 -4 -10 -10z"/>
<path d="M1651 2304 c0 -11 3 -14 6 -6 3 7 2 16 -1 19 -3 4 -6 -2 -5 -13z"/>
<path d="M1637 2258 c6 -7 13 -20 16 -28 4 -10 6 -8 6 6 1 12 -6 25 -15 28
-13 5 -14 3 -7 -6z"/>
<path d="M1675 2219 c-11 -17 1 -21 15 -4 8 9 8 15 2 15 -6 0 -14 -5 -17 -11z"/>
<path d="M1636 2188 c3 -5 10 -6 15 -3 13 9 11 12 -6 12 -8 0 -12 -4 -9 -9z"/>
<path d="M1513 2168 c-24 -32 -26 -40 -5 -29 21 11 38 41 23 41 -5 0 -13 -6
-18 -12z"/>
<path d="M1460 2139 c0 -5 5 -7 10 -4 6 3 10 8 10 11 0 2 -4 4 -10 4 -5 0 -10
-5 -10 -11z"/>
<path d="M1212 1715 c-7 -14 -12 -31 -12 -38 1 -7 7 3 16 22 17 39 13 54 -4
16z"/>
<path d="M1226 1650 c-22 -56 -19 -65 5 -11 11 24 18 46 15 48 -2 2 -11 -14
-20 -37z"/>
<path d="M1177 1618 c-9 -23 -15 -43 -13 -45 2 -2 11 15 20 38 9 23 15 43 13
45 -2 2 -11 -15 -20 -38z"/>
<path d="M1196 1575 c-9 -26 -7 -32 5 -12 6 10 9 21 6 23 -2 3 -7 -2 -11 -11z"/>
<path d="M1146 1545 c-3 -9 -6 -22 -5 -28 0 -7 5 -1 10 12 5 13 8 26 5 28 -2
2 -6 -3 -10 -12z"/>
<path d="M1166 1495 c-9 -26 -7 -32 5 -12 6 10 9 21 6 23 -2 3 -7 -2 -11 -11z"/>
<path d="M916 1218 c-8 -30 -7 -38 2 -38 4 0 8 14 9 30 3 36 -2 39 -11 8z"/>
<path d="M866 1093 c-4 -9 -1 -13 6 -10 7 2 21 0 30 -5 13 -6 16 -5 12 6 -8
20 -42 27 -48 9z"/>
<path d="M1060 1055 c-9 -11 -10 -16 -2 -11 7 4 12 2 12 -8 0 -8 -4 -18 -10
-21 -14 -8 -13 -55 1 -55 6 0 8 7 5 16 -3 8 -1 24 5 35 5 11 9 30 7 41 -3 21
-4 21 -18 3z"/>
<path d="M892 1028 c15 -41 28 -44 28 -6 0 26 -4 34 -19 34 -16 0 -17 -4 -9
-28z"/>
<path d="M1023 1035 c-3 -9 -3 -18 -1 -21 3 -3 8 4 11 16 6 23 -1 27 -10 5z"/>
<path d="M833 991 c0 -10 7 -17 13 -14 7 3 10 11 7 19 -8 20 -22 17 -20 -5z"/>
<path d="M855 950 c3 -5 8 -10 11 -10 2 0 4 5 4 10 0 6 -5 10 -11 10 -5 0 -7
-4 -4 -10z"/>
<path d="M1048 943 c6 -2 12 -11 12 -19 0 -8 5 -14 10 -14 7 0 7 6 0 20 -6 11
-16 20 -23 19 -9 0 -9 -2 1 -6z"/>
<path d="M2196 283 c-6 -14 -5 -15 5 -6 7 7 10 15 7 18 -3 3 -9 -2 -12 -12z"/>
</g>
</svg>
